<?xml version="1.0" encoding="UTF-8"?>
<svg width="130px" height="32px" viewBox="0 0 130 32" version="1.1" xmlns="http://www.w3.org/2000/svg" xmlns:xlink="http://www.w3.org/1999/xlink">
    <!-- Generator: Sketch 55.2 (78181) - https://sketchapp.com -->
    <title>logo1</title>
    <desc>Created with Sketch.</desc>
    <g id="logo1" stroke="none" stroke-width="1" fill="none" fill-rule="evenodd">
        <g id="logo" fill="#FFFFFF" fill-rule="nonzero">
            <path d="M28.8792593,8.11089109 C29.0108642,7.50574257 29.3928395,7.0019802 29.6753086,6.46336634 C30.002716,5.84554455 30.2691358,5.19287129 30.5676543,4.55920792 C30.8404938,3.98891089 31.1101235,3.41544554 31.3861728,2.84831683 C31.694321,2.21782178 32.0859259,1.60316832 32.3651852,0.966336634 C32.4807407,0.706534653 32.474321,0.57029703 32.7953086,0.529108911 C33.0360494,0.497425743 33.2992593,0.513267327 33.5432099,0.513267327 C34.2911111,0.51960396 35.0358025,0.557623762 35.7837037,0.554455446 C36.4738272,0.554455446 37.1671605,0.551287129 37.857284,0.541782178 C38.1461728,0.538613861 38.4318519,0.535445545 38.7207407,0.532277228 C38.9871605,0.529108911 39.442963,0.427722772 39.6901235,0.551287129 C39.8987654,0.652673267 39.937284,0.921980198 40.0079012,1.11841584 C40.117037,1.41306931 40.2293827,1.70772277 40.3577778,1.99287129 C40.4508642,2.2019802 40.637037,2.49346535 40.5696296,2.73425743 C40.5150617,2.92435644 40.2775309,3.06376238 40.1491358,3.2 C39.7093827,3.66891089 39.3530864,4.21069307 38.9293827,4.69227723 C38.4928395,5.19287129 38.0466667,5.6839604 37.648642,6.21623762 C37.2762963,6.71366337 36.8590123,7.16673267 36.4288889,7.61663366 C35.9698765,8.09188119 35.5975309,8.63366337 35.151358,9.12158416 C34.3585185,9.98970297 33.6041975,10.8831683 32.8851852,11.8146535 C32.0762963,12.8633663 31.174321,13.8423762 30.3525926,14.8847525 C30.1824691,15.100198 29.977037,15.3061386 29.8358025,15.5437624 C29.6720988,15.8225743 29.6977778,16.0855446 29.6977778,16.3928713 C29.7009877,16.969505 29.537284,17.5207921 29.537284,18.1037624 C29.5340741,20.7112871 29.0814815,23.8067327 30.7120988,26.0530693 C31.3797531,26.9718812 32.6444444,27.0922772 33.6748148,26.7184158 C34.2076543,26.5251485 34.5992593,26.2590099 35.0646914,25.9611881 C35.5654321,25.6380198 35.7259259,26.0720792 35.9281481,26.4681188 C36.1014815,26.8134653 36.3711111,27.1683168 36.4192593,27.5611881 C36.4866667,28.1346535 35.7548148,28.3817822 35.3728395,28.6827723 C34.4098765,29.4431683 33.3859259,30.200396 32.2817284,30.7516832 C29.9224691,31.9334653 26.7511111,32.4974257 24.4688889,30.8625743 C23.4577778,30.1370297 22.8158025,29.0914851 22.4209877,27.9350495 C22.1962963,27.2760396 22.0903704,26.5885149 22.0101235,25.8946535 C21.9748148,25.5809901 21.84,25.289505 21.8207407,24.9758416 C21.8014815,24.6368317 21.9138272,24.2978218 21.7661728,23.9714851 C21.4740741,24.4689109 21.008642,24.8427723 20.6106173,25.2546535 C20.1098765,25.7742574 19.6187654,26.300198 19.1116049,26.8134653 C18.2096296,27.7291089 17.2434568,28.5592079 16.171358,29.2657426 C14.0624691,30.6566337 11.8283951,31.7940594 9.23160494,31.8447525 C7.96049383,31.870099 6.59950617,31.8257426 5.42469136,31.2839604 C4.27234568,30.7516832 3.29975309,30.1433663 2.5037037,29.1358416 C2.11851852,28.6479208 1.77506173,28.1156436 1.49259259,27.5643564 C1.23259259,27.0574257 0.921234568,26.5346535 0.776790123,25.9833663 C0.629135802,25.4257426 0.487901235,24.8110891 0.430123457,24.2407921 C0.369135802,23.6229703 0.208641975,23.0716832 0.247160494,22.4443564 C0.285679012,21.820198 0.359506173,21.2055446 0.404444444,20.5813861 C0.459012346,19.8685149 0.433333333,19.130297 0.564938272,18.4237624 C0.796049383,17.1849505 1.09135802,15.9112871 1.52469136,14.7136634 C1.72049383,14.1718812 1.9837037,13.6617822 2.19876543,13.129505 C2.2982716,12.8855446 2.36246914,12.6289109 2.46839506,12.3881188 C2.59037037,12.1093069 2.78938272,11.8906931 2.94987654,11.6340594 C3.2708642,11.1144554 3.50518519,10.550495 3.84864198,10.0435644 C4.23061728,9.47643564 4.61259259,8.91247525 5.00740741,8.34851485 C7.84493827,4.29306931 12.194321,0.836435644 17.2851852,0.25029703 C17.6767901,0.205940594 18.0683951,0.247128713 18.46,0.177425743 C18.8387654,0.110891089 19.1854321,0.076039604 19.5738272,0.0790094402 C20.2222222,0.0887128713 20.9059259,0.158415842 21.5446914,0.25029703 C22.8992593,0.443564356 24.2891358,0.994851485 25.377284,1.82178218 C26.4879012,2.66772277 27.2935802,3.81148515 27.8585185,5.07247525 C28.157037,5.7409901 28.4362963,6.44118812 28.5711111,7.16356436 C28.6128395,7.36950495 28.574321,8.08871287 28.8792593,8.11089109 Z M23.0565432,10.6550495 C23.1175309,10.6550495 22.828642,7.60712871 22.7933333,7.45188119 C22.6039506,6.54257426 22.2701235,5.45584158 21.6185185,4.76514851 C20.9733333,4.07762376 20.1387654,3.73227723 19.188642,3.71643564 C18.2320988,3.70059406 17.262716,3.93188119 16.4345679,4.40712871 C16.0140741,4.64792079 15.5614815,4.87920792 15.1795062,5.18019802 C14.7750617,5.50019802 14.4283951,5.90891089 14.0817284,6.28910891 C12.6533333,7.86693069 11.6037037,9.72356436 10.7883951,11.6720792 C10.3775309,12.6542574 9.97950617,13.6554455 9.70345679,14.6819802 C9.44345679,15.6578218 9.27654321,16.6526733 9.04864198,17.6316832 C8.9362963,18.1069307 8.92345679,18.6677228 8.89777778,19.1556436 C8.86888889,19.6974257 8.84641975,20.2328713 8.79185185,20.7746535 C8.73728395,21.2942574 8.77259259,21.7473267 8.85604938,22.2605941 C8.89135802,22.4887129 8.88814815,22.6851485 8.87851852,22.9132673 C8.86246914,23.2364356 8.94592593,23.4962376 9.03259259,23.8067327 C9.29259259,24.760396 9.59753086,25.5778218 10.3454321,26.2621782 C11.1093827,26.9592079 12.1525926,26.9877228 13.1380247,26.8071287 C15.1891358,26.430099 16.8293827,24.950495 18.1775309,23.4582178 C19.76,21.7061386 20.9348148,19.589703 22.1128395,17.5619802 C22.2669136,17.2990099 22.4723457,17.020198 22.5782716,16.7350495 C22.6649383,16.5069307 22.6135802,16.2946535 22.6296296,16.060198 C22.6488889,15.7655446 22.7644444,15.4867327 22.7837037,15.1920792 C22.7997531,14.9354455 22.7676543,14.6788119 22.7901235,14.4253465 C22.8832099,13.1643564 23.0565432,11.9128713 23.0565432,10.6550495 Z" id="Shape"></path>
            <path d="M45.9140741,14.8752475 C46.1419753,14.6788119 46.4854321,14.6629703 46.7711111,14.6756436 C47.2333333,14.6978218 47.6955556,14.6819802 48.1577778,14.6788119 C48.5076543,14.6756436 48.9634568,14.599604 49.2780247,14.789703 C49.6407407,15.0083168 49.5187654,15.3885149 49.5733333,15.7370297 C49.5990123,15.9017822 49.6728395,16.0506931 49.7017284,16.2154455 C49.737037,16.4087129 49.6920988,16.6051485 49.7274074,16.7984158 C49.7595062,16.9631683 49.8493827,17.1025743 49.8750617,17.270495 C49.9039506,17.4732673 49.842963,17.6792079 49.8879012,17.8851485 C49.9617284,18.2431683 50.0355556,18.5790099 50.0933333,18.9465347 C50.1639506,19.399604 50.2249383,19.849505 50.3083951,20.3025743 C50.3822222,20.6954455 50.4271605,21.1009901 50.4688889,21.4970297 C50.5106173,21.9152475 50.6293827,22.2891089 50.648642,22.710495 C50.6646914,23.0685149 50.8059259,23.3821782 50.8123457,23.749703 C50.8155556,23.9239604 50.8316049,24.0443564 50.882963,24.2091089 C50.9503704,24.4308911 50.9375309,24.5924752 50.9503704,24.8174257 C50.9632099,25.0011881 51.037037,25.1469307 51.0787654,25.3211881 C51.1301235,25.539802 51.0787654,25.7520792 51.1076543,25.9706931 C51.1333333,26.1576238 51.2360494,26.3223762 51.271358,26.5061386 C51.3098765,26.7184158 51.2938272,26.9465347 51.2874074,27.1619802 C51.2809877,27.4407921 51.3387654,27.8368317 51.062716,28.0047525 C50.7898765,28.169505 50.2891358,28.0554455 49.9938272,28.0586139 C49.6471605,28.0617822 49.2523457,28.1441584 48.9088889,28.0807921 C48.4755556,28.0015842 48.4177778,27.5675248 48.3792593,27.1968317 C48.334321,26.7659406 48.2958025,26.360396 48.2219753,25.9326733 C48.177037,25.6792079 48.3246914,25.1944554 48.0454321,25.0423762 C47.8175309,24.9219802 47.3553086,25.0328713 47.111358,25.0360396 C46.6009877,25.0392079 46.0906173,25.029703 45.5802469,25.029703 C45.137284,25.029703 44.6975309,25.029703 44.2545679,25.029703 C43.9464198,25.029703 43.3879012,24.9124752 43.1311111,25.1025743 C42.9128395,25.2673267 42.8454321,25.6443564 42.7266667,25.8756436 C42.5276543,26.2653465 42.2837037,26.629703 42.0879012,27.0225743 C41.9434568,27.3108911 41.8503704,27.6784158 41.5903704,27.8875248 C41.2950617,28.1283168 40.8649383,28.1029703 40.5054321,28.090297 C40.1459259,28.0776238 39.102716,28.289901 38.9293827,27.9192079 C38.8202469,27.6910891 38.9871605,27.3362376 39.0834568,27.130297 C39.2888889,26.6994059 39.5520988,26.2875248 39.7832099,25.8693069 C40.8424691,23.9556436 41.9274074,22.0546535 42.9930864,20.1473267 C43.5002469,19.2380198 43.9207407,18.2875248 44.4728395,17.400396 C44.745679,16.9631683 44.9061728,16.4689109 45.1822222,16.0348515 C45.3041975,15.8415842 45.4646914,15.6768317 45.577037,15.4772277 C45.6893827,15.2712871 45.7471605,15.0463366 45.9140741,14.8752475 Z M47.8817284,22.8784158 C47.8528395,22.4 47.7533333,21.8867327 47.6891358,21.4083168 C47.6281481,20.9425743 47.6120988,20.4451485 47.4837037,19.9952475 C47.4130864,19.7386139 47.4195062,19.52 47.4098765,19.260198 C47.4002469,19.0289109 47.2846914,18.8388119 47.2622222,18.6138614 C47.2461728,18.4586139 47.4034568,17.6285149 47.0439506,17.6918812 C46.8738272,17.720396 46.6780247,18.3635644 46.6074074,18.4966337 C46.3409877,18.9813861 46.0745679,19.4629703 45.8209877,19.9540594 C45.5738272,20.4388119 45.2881481,20.9013861 45.0281481,21.379802 C44.7938272,21.8106931 44.3990123,22.390495 44.3348148,22.8784158 C45.5160494,22.8784158 46.697284,22.8784158 47.8817284,22.8784158 Z" id="Shape"></path>
            <path d="M62.1881481,19.4122772 C62.4866667,19.3489109 62.6696296,19.0479208 62.8911111,18.8609901 C63.2024691,18.5980198 63.5716049,18.3667327 63.9439506,18.2019802 C64.7753086,17.8344554 65.5424691,17.8534653 66.4155556,18.0340594 C67.1474074,18.1861386 67.7893827,18.7659406 68.0911111,19.4376238 C68.4088889,20.1441584 68.3479012,20.9235644 68.3639506,21.6776238 C68.3767901,22.409505 68.328642,23.0653465 68.0750617,23.7528713 C67.7765432,24.5544554 67.5775309,25.340198 67.1153086,26.0752475 C66.6787654,26.7691089 66.1009877,27.3552475 65.3851852,27.7734653 C64.7849383,28.1251485 63.8861728,28.4039604 63.1767901,28.3120792 C62.634321,28.2423762 62.0180247,28.1726733 61.5814815,27.8241584 C61.437037,27.710099 61.1609877,27.390099 60.9651852,27.3964356 C60.7212346,27.4059406 60.737284,27.8019802 60.7083951,27.9794059 C60.58,28.790495 60.4034568,29.5920792 60.2750617,30.4031683 C60.2269136,30.72 60.2333333,31.1033663 60.06,31.3821782 C59.8577778,31.7053465 59.5079012,31.7148515 59.1612346,31.7085149 C58.7022222,31.7021782 57.7488889,31.9778218 57.4632099,31.4930693 C57.2096296,31.0621782 57.5209877,30.3968317 57.6204938,29.9627723 C58.005679,28.2265347 58.2560494,26.4649505 58.6733333,24.7318812 C59.1355556,22.8182178 59.5111111,20.8475248 59.8545679,18.9085149 C60.0054321,18.049901 60.7822222,17.9865347 61.5493827,18.0372277 C61.8414815,18.0562376 62.2459259,18.0974257 62.348642,18.4174257 C62.4417284,18.7374257 62.2138272,19.0986139 62.1881481,19.4122772 Z M65.5906173,21.7536634 C65.4525926,21.370297 65.6195062,20.999604 65.3659259,20.6384158 C65.2022222,20.4039604 64.9518519,20.2106931 64.6565432,20.1726733 C64.1012346,20.1029703 63.5106173,20.5085149 63.1254321,20.8570297 C62.8461728,21.110495 62.6311111,21.4178218 62.425679,21.7314851 C62.2491358,21.9976238 62.1496296,22.2289109 62.0276543,22.520396 C61.9088889,22.8055446 61.7516049,23.0209901 61.6681481,23.3314851 C61.5654321,23.7116832 61.4530864,24.1108911 61.4177778,24.5069307 C61.3054321,25.8154455 63.231358,26.4205941 64.1269136,25.6190099 C65.1765432,24.6811881 65.5906173,23.0970297 65.5906173,21.7536634 Z" id="Shape"></path>
            <path d="M78.0674074,27.8178218 C77.6308642,28.1283168 77.0787654,28.0649505 76.5748148,28.0586139 C76.2795062,28.0522772 75.7883951,28.150495 75.5508642,27.9160396 C75.2555556,27.6277228 75.5187654,27.0986139 75.5893827,26.7722772 C75.6985185,26.249505 75.7916049,25.7267327 75.8814815,25.1976238 C75.9585185,24.7318812 76.102963,24.2756436 76.1896296,23.8067327 C76.2795062,23.3124752 76.3533333,22.789703 76.517037,22.330297 C76.648642,21.9659406 76.5908642,21.2277228 76.4977778,20.8443564 C76.3854321,20.3754455 75.9488889,20.2265347 75.502716,20.289901 C74.6360494,20.4166337 73.9234568,21.3227723 73.5190123,22.0229703 C73.0022222,22.919604 72.8160494,23.8922772 72.6362963,24.8934653 C72.5367901,25.4510891 72.3987654,26.0055446 72.2767901,26.5568317 C72.177284,27.009901 72.2125926,27.6879208 71.7407407,27.9540594 C71.4582716,28.1124752 71.0891358,28.0554455 70.7777778,28.0807921 C70.4375309,28.1061386 70.0780247,28.1726733 69.7377778,28.1029703 C69.342963,28.0237624 69.2819753,27.8368317 69.394321,27.4756436 C69.5644444,26.9433663 69.6671605,26.3223762 69.7345679,25.7710891 C69.7891358,25.3306931 69.9432099,24.9061386 70.0106173,24.4562376 C70.0940741,23.8954455 70.2320988,23.3409901 70.3380247,22.7833663 C70.7841975,20.4546535 71.3106173,18.1386139 71.7535802,15.809901 C71.8530864,15.2839604 71.9525926,14.7485149 72.0938272,14.2320792 C72.2222222,13.750495 72.7037037,13.7251485 73.1402469,13.7188119 C73.4965432,13.7156436 73.8881481,13.6681188 74.2412346,13.7346535 C74.3985185,13.7663366 74.5911111,13.820198 74.6874074,13.9627723 C74.8222222,14.1623762 74.6745679,14.4221782 74.6392593,14.6376238 C74.4338272,15.8447525 74.1834568,17.0487129 73.9298765,18.2463366 C73.8881481,18.4459406 73.5479012,19.2918812 73.997284,19.0891089 C74.1545679,19.0194059 74.2669136,18.8071287 74.3920988,18.6994158 C74.6007407,18.5219802 74.854321,18.4015842 75.1046914,18.2938614 C75.6535802,18.0562376 76.231358,17.859802 76.8380247,17.8534653 C77.1269136,17.850297 77.3387654,17.9611881 77.6180247,18.0055446 C77.897284,18.049901 78.0577778,18.0625743 78.3081481,18.230495 C79.1940741,18.8324752 79.3930864,19.6974257 79.3449383,20.7144554 C79.3160494,21.3607921 79.2935802,21.9342574 79.142716,22.5679208 C79.065679,22.8910891 79.0496296,23.230099 78.9565432,23.550099 C78.9404938,23.610297 78.8730864,23.6578218 78.8602469,23.7211881 C78.8120988,23.9207921 78.8666667,24.1235644 78.8120988,24.3231683 C78.7511111,24.5386139 78.6869136,24.700198 78.6548148,24.9314851 C78.6162963,25.2007921 78.5617284,25.4732673 78.5167901,25.7425743 C78.3948148,26.439604 78.1958025,27.1239604 78.0674074,27.8178218 Z" id="Path"></path>
            <path d="M86.997284,26.8261386 C86.7276543,26.9338614 86.58,27.2063366 86.3617284,27.3805941 C86.0696296,27.6150495 85.697284,27.7481188 85.3634568,27.9128713 C84.76,28.2106931 84.0506173,28.3976238 83.4022222,28.2423762 C82.7441975,28.0839604 82.1985185,28.0205941 81.6849383,27.5136634 C81.171358,27.0067327 80.9402469,26.2906931 80.8535802,25.590495 C80.6738272,24.120396 81.0301235,22.6851485 81.5051852,21.310099 C81.9320988,20.0776238 82.9624691,18.88 84.1501235,18.3065347 C84.9204938,17.9358416 85.7454321,17.7679208 86.5960494,17.92 C87.0550617,18.0023762 87.4659259,18.1829703 87.8511111,18.4364356 C88.1432099,18.629703 88.374321,18.9940594 88.6953086,19.1271287 C88.6953086,18.7944554 88.685679,18.3920792 89.0483951,18.230495 C89.3404938,18.0974257 89.7674074,18.0308911 90.0883951,18.0118812 C90.3837037,17.9960396 90.8587654,18.0118812 91.0609877,18.2685149 C91.2535802,18.5156436 91.077037,18.7405941 91.0192593,18.9940594 C90.842716,19.7639604 90.7528395,20.5592079 90.5730864,21.3291089 C90.3869136,22.1180198 90.2039506,22.919604 90.0883951,23.7211881 C90.037037,24.0855446 89.9054321,24.440396 89.8444444,24.8079208 C89.7802469,25.219802 89.6935802,25.6221782 89.6197531,26.0308911 C89.517037,26.5980198 89.5876543,27.6087129 89.0066667,27.9413861 C88.5893827,28.1821782 87.9538272,28.0966337 87.4916049,28.0744554 C87.2701235,28.0649505 86.917037,28.0491089 86.8624691,27.7734653 C86.8335802,27.6308911 86.9523457,27.5390099 86.9844444,27.4091089 C87.0454321,27.2190099 86.997284,27.0225743 86.997284,26.8261386 Z M84.5930864,26.0087129 C86.111358,25.7520792 86.7661728,24.6114851 87.4145679,23.3726733 C87.542963,23.1287129 87.5846914,22.7548515 87.6360494,22.4792079 C87.697037,22.149703 87.8446914,21.7631683 87.828642,21.430495 C87.802963,20.8855446 87.0614815,20.3754455 86.5767901,20.2487129 C85.3185185,19.9223762 84.4518519,21.1770297 84.0441975,22.1687129 C83.7488889,22.8910891 83.5916049,23.6863366 83.5980247,24.4657426 C83.6012346,24.8237624 83.6590123,25.210297 83.8195062,25.5334653 C83.9832099,25.8534653 84.265679,25.9263366 84.5930864,26.0087129 Z" id="Shape"></path>
            <path d="M129.99358,21.6459406 C129.99358,23.6071287 129.354815,25.6443564 127.849383,26.9908911 C127.075802,27.6847525 125.958765,28.2265347 124.902716,28.2075248 C124.629877,28.2043564 124.385926,28.2740594 124.119506,28.2930693 C123.881975,28.3089109 123.638025,28.2360396 123.400494,28.2233663 C122.764938,28.1885149 122.19679,28.0839604 121.628642,27.7829703 C119.60321,26.7184158 119.677037,23.879604 120.338272,22.0007921 C121.073333,19.9128713 122.73284,18.1924752 125.043951,17.9611881 C126.221975,17.8439604 127.66321,17.8819802 128.664691,18.5790099 C129.142963,18.9116832 129.463951,19.3108911 129.688642,19.84 C129.800988,20.099802 129.926173,20.3659406 129.971111,20.6479208 C130.019259,20.9774257 129.906914,21.3164356 129.99358,21.6459406 Z M126.908889,20.5053465 C125.628148,19.5485149 124.222222,20.2455446 123.474321,21.4621782 C123.082716,22.0990099 122.899753,22.8752475 122.771358,23.6039604 C122.652593,24.259802 122.694321,25.1469307 123.153333,25.669703 C123.541728,26.1132673 124.247901,26.1671287 124.8,26.0752475 C125.538272,25.9548515 126.064691,25.4067327 126.420988,24.7889109 C126.809383,24.120396 127.062963,23.420198 127.191358,22.6566337 C127.255556,22.2732673 127.274815,21.8233663 127.236296,21.4336634 C127.204198,21.0946535 126.995556,20.8316832 126.908889,20.5053465 Z" id="Shape"></path>
            <path d="M109.151852,20.419802 C108.997778,20.600396 109.180741,20.489505 109.164691,20.600396 C109.151852,20.7176238 109.100494,20.8126733 109.074815,20.929901 C109.045926,21.059802 109.074815,21.1960396 109.045926,21.3259406 C109.007407,21.5065347 108.879012,21.6807921 108.792346,21.8392079 C108.461728,22.4348515 107.977037,22.8055446 107.363951,23.100198 C106.622469,23.4582178 105.880988,23.5722772 105.078519,23.6990099 C104.680494,23.7623762 104.304938,23.8162376 103.900494,23.8162376 C103.512099,23.8130693 103.094815,23.7433663 102.70963,23.7908911 C102.006667,23.8764356 102.305185,24.9251485 102.475309,25.3560396 C102.770617,26.1069307 103.47037,26.2431683 104.215062,26.249505 C104.593827,26.2526733 104.972593,26.2114851 105.341728,26.1386139 C105.701235,26.0689109 106.128148,26.0213861 106.468395,25.8978218 C106.937037,25.7267327 107.62716,25.3592079 107.681728,26.1544554 C107.713827,26.620198 107.476296,27.2158416 107.142469,27.5453465 C106.696296,27.9889109 105.996543,27.9857426 105.415556,28.1251485 C105.020741,28.220198 104.661235,28.1885149 104.26,28.2170297 C104.080247,28.229703 103.910123,28.2835644 103.73037,28.2962376 C103.496049,28.3152475 103.277778,28.2455446 103.046667,28.2170297 C102.263457,28.1219802 101.525185,28.0871287 100.847901,27.6277228 C100.286173,27.2475248 100.022963,26.750099 99.8014815,26.1386139 C99.682716,25.8122772 99.6281481,25.6316832 99.6409877,25.28 C99.657037,24.8649505 99.6281481,24.449901 99.6409877,24.0348515 C99.6923457,22.5647525 100.257284,20.9679208 101.220247,19.830495 C102.340494,18.5061386 104.00642,17.7710891 105.749383,17.850297 C106.577531,17.8883168 107.546914,18.1322772 108.204938,18.6518812 C108.766667,19.0986139 108.94321,19.779802 109.151852,20.419802 Z M105.222963,19.849505 C105.222963,19.7956436 104.587407,19.900198 104.52,19.9223762 C104.096296,20.0586139 103.711111,20.4166337 103.431852,20.7493069 C103.22,21.0059406 102.982469,21.3291089 102.895802,21.6522772 C102.767407,22.1306931 103.191111,22.1370297 103.553827,22.0831683 C104.359506,21.9627723 105.338519,22.0324752 106.035062,21.5508911 C106.426667,21.2815842 106.567901,20.8221782 106.362469,20.3849505 C106.153827,19.9445545 105.669136,19.849505 105.222963,19.849505 Z" id="Shape"></path>
            <path d="M111.860988,27.8621782 C111.450123,27.1936634 111.658765,26.2621782 111.479012,25.530297 C111.437284,25.3655446 111.360247,25.2166337 111.340988,25.0487129 C111.315309,24.8427723 111.373086,24.6368317 111.331358,24.4308911 C111.296049,24.2661386 111.202963,24.1267327 111.186914,23.9556436 C111.164444,23.7306931 111.219012,23.5120792 111.170864,23.2871287 C111.132346,23.0970297 111.045679,22.9354455 111.03284,22.7358416 C111.02,22.5615842 111.052099,22.3841584 111.039259,22.209901 C111.02321,22.0134653 110.955802,21.8328713 110.920494,21.639604 C110.881975,21.4146535 110.933333,21.1833663 110.885185,20.9584158 C110.853086,20.8 110.76642,20.6637624 110.740741,20.5021782 C110.708642,20.3152475 110.74716,20.1219802 110.737531,19.9318812 C110.715062,19.580198 110.548148,19.269703 110.538519,18.9085149 C110.519259,18.1291089 111.116296,18.0594059 111.780741,18.0245545 C112.406667,17.989703 113.337531,17.980198 113.36642,18.7722772 C113.379259,19.1461386 113.382469,19.4312871 113.475556,19.7956436 C113.581481,20.2011881 113.530123,20.6384158 113.61358,21.0534653 C113.770864,21.8392079 113.780494,22.6978218 113.860741,23.4994059 C113.902469,23.9112871 113.947407,24.32 114.008395,24.7287129 C114.037284,24.9346535 114.046914,25.159604 114.274815,25.0423762 C114.425679,24.9663366 114.547654,24.6083168 114.621481,24.4657426 C114.772346,24.1774257 114.942469,23.9017822 115.090123,23.610297 C115.462469,22.8815842 115.854074,22.1560396 116.168642,21.4019802 C116.47037,20.6764356 116.666173,19.9160396 116.900494,19.1714851 C117.057778,18.6740594 117.243951,18.179802 117.840988,18.0625743 C118.216543,17.989703 118.672346,17.980198 119.057531,18.0182178 C119.246914,18.0372277 119.693086,18.1037624 119.815062,18.2653465 C120.12,18.6645545 119.60321,19.6625743 119.452346,20.030099 C119.147407,20.7651485 118.83284,21.4906931 118.502222,22.2162376 C117.735062,23.9017822 116.778519,25.4637624 115.738519,26.9845545 C115.555556,27.2538614 115.417531,27.580198 115.17679,27.8114851 C114.865432,28.1061386 114.441728,28.0839604 114.043704,28.0681188 C113.542963,28.0459406 113.051852,28.0807921 112.554321,28.090297 C112.397037,28.0934653 112.265432,28.0871287 112.120988,28.030099 C112.095309,28.0237624 111.825679,27.8875248 111.860988,27.8621782 Z" id="Path"></path>
            <path d="M54.1538272,28.0617822 C53.8264198,28.0617822 53.4733333,28.1663366 53.1523457,28.0712871 C52.6483951,27.9255446 52.9212346,27.4059406 52.9822222,27.0352475 C53.0849383,26.4110891 53.222963,25.790099 53.3449383,25.1691089 C53.3962963,24.9029703 53.5054321,24.6368317 53.5503704,24.3738614 C53.5728395,24.250297 53.5375309,24.1172277 53.5664198,23.9936634 C53.6017284,23.8447525 53.7044444,23.7370297 53.7333333,23.5849505 C53.8232099,23.0970297 53.8488889,22.5964356 53.9676543,22.1085149 C54.1281481,21.4526733 54.3014815,20.7968317 54.4266667,20.1346535 C54.6674074,18.8514851 54.9595062,17.5778218 55.197037,16.2946535 C55.3093827,15.689505 55.38,15.0653465 55.5276543,14.4633663 C55.6528395,13.9469307 55.9609877,13.7314851 56.4906173,13.7283168 C56.9239506,13.7251485 57.7007407,13.5889109 58.0666667,13.8423762 C58.474321,14.1243564 58.188642,14.6788119 58.1148148,15.0526733 C57.6365432,17.3782178 57.225679,19.6974257 56.7185185,22.0324752 C56.3911111,23.5374257 56.1471605,25.0582178 55.822963,26.5631683 C55.7234568,27.0289109 55.6592593,27.9413861 55.0750617,28.0617822 C54.9948148,28.0776238 54.1538272,28.0712871 54.1538272,28.0617822 Z" id="Path"></path>
            <path d="M95.9335802,18.1956436 C95.9335802,18.6392079 95.9624691,19.1049505 95.7506173,19.510495 C95.9624691,19.5548515 96.0459259,19.3172277 96.1454321,19.1841584 C96.302716,18.9718812 96.4888889,18.7944554 96.694321,18.629703 C97.1212346,18.2843564 97.6059259,17.9833663 98.1580247,17.8946535 C98.5239506,17.8344554 99.0182716,17.8059406 99.3520988,17.9960396 C99.7437037,18.2178218 99.6666667,18.6835644 99.5928395,19.0574257 C99.502963,19.510495 99.3874074,19.9794059 99.137037,20.3722772 C98.8641975,20.7968317 98.382716,20.489505 97.9558025,20.4673267 C96.8740741,20.4166337 96.0908642,21.7219802 95.7377778,22.5805941 C95.6350617,22.8340594 95.5676543,23.100198 95.4585185,23.3473267 C95.3365432,23.6261386 95.3654321,23.8669307 95.3140741,24.1647525 C95.2049383,24.7952475 95.0476543,25.4162376 94.9064198,26.0372277 C94.797284,26.5124752 94.797284,27.0574257 94.6271605,27.5168317 C94.4185185,28.0712871 93.9017284,28.0934653 93.3785185,28.0649505 C92.9965432,28.0459406 92.5792593,28.1568317 92.2037037,28.0807921 C91.6708642,27.9730693 91.8666667,27.510495 91.9308642,27.1112871 C92.0079012,26.6455446 92.2133333,26.2051485 92.2807407,25.7362376 C92.3834568,25.0138614 92.5375309,24.3041584 92.6691358,23.5817822 C92.8039506,22.849901 92.9548148,22.1211881 93.1024691,21.3924752 C93.2340741,20.739802 93.417037,20.0744554 93.497284,19.4154455 C93.548642,19.000396 93.5422222,18.4649505 93.937037,18.2083168 C94.5019753,17.8376238 95.3204938,18.1037624 95.9335802,18.1956436 Z" id="Path"></path>
        </g>
    </g>
</svg>